<?xml version="1.0" encoding="UTF-8" standalone="no"?>
<!-- Generator: Adobe Illustrator 16.0.0, SVG Export Plug-In . SVG Version: 6.00 Build 0)  -->

<svg
   xmlns:dc="http://purl.org/dc/elements/1.1/"
   xmlns:cc="http://creativecommons.org/ns#"
   xmlns:rdf="http://www.w3.org/1999/02/22-rdf-syntax-ns#"
   xmlns:svg="http://www.w3.org/2000/svg"
   xmlns="http://www.w3.org/2000/svg"
   xmlns:sodipodi="http://sodipodi.sourceforge.net/DTD/sodipodi-0.dtd"
   xmlns:inkscape="http://www.inkscape.org/namespaces/inkscape"
   version="1.1"
   id="Layer_1"
   x="0px"
   y="0px"
   width="720"
   height="150.64511"
   viewBox="0 0 720 150.64511"
   enable-background="new 0 0 1920 1080"
   xml:space="preserve"
   sodipodi:docname="mixen.svg"
   inkscape:version="0.92.3 (2405546, 2018-03-11)"><metadata
   id="metadata21"><rdf:RDF><cc:Work
       rdf:about=""><dc:format>image/svg+xml</dc:format><dc:type
         rdf:resource="http://purl.org/dc/dcmitype/StillImage" /><dc:title></dc:title></cc:Work></rdf:RDF></metadata><defs
   id="defs19" /><sodipodi:namedview
   pagecolor="#ffffff"
   bordercolor="#666666"
   borderopacity="1"
   objecttolerance="10"
   gridtolerance="10"
   guidetolerance="10"
   inkscape:pageopacity="0"
   inkscape:pageshadow="2"
   inkscape:window-width="1920"
   inkscape:window-height="1017"
   id="namedview17"
   showgrid="false"
   fit-margin-top="0"
   fit-margin-left="0"
   fit-margin-right="0"
   fit-margin-bottom="0"
   inkscape:zoom="1.0282511"
   inkscape:cx="109.55211"
   inkscape:cy="71.09926"
   inkscape:window-x="-8"
   inkscape:window-y="-8"
   inkscape:window-maximized="1"
   inkscape:current-layer="Layer_1" />
<g
   id="g14"
   style="fill:#ffffff;fill-opacity:1"
   transform="matrix(0.38745127,0,0,0.38745127,-13.912578,-123.14191)">
	<path
   d="m 1392.598,547.135 c -34.041,0 -68.1,0 -102.146,0.021 -2.248,0 -4.496,0.105 -6.764,0.212 -1.102,0.078 -2.201,1.168 -2.21,2.201 -0.063,6.989 -0.394,13.999 0.29,20.95 0.162,1.792 0.574,3.604 0.528,5.384 -0.275,7.457 2.822,14.049 4.992,20.885 2.795,4.603 5.131,9.452 8.824,13.531 4.763,5.267 10.233,9.491 16.254,13.073 0.959,0.565 2.021,0.984 3.038,1.434 1.23,0.544 2.465,1.109 3.734,1.577 3.782,1.361 7.373,3.407 11.561,3.504 6.236,2.276 12.822,2.367 19.302,3.116 4.915,0.543 9.905,0.64 14.852,0.175 6.535,-0.614 13.056,-1.034 19.545,-1.87 4.446,-0.584 8.858,-1.549 13.225,-2.639 5.024,-1.256 9.98,-2.805 14.945,-4.234 0.655,-0.193 1.28,-0.438 1.907,-0.681 13.921,-5.355 27.089,-12.151 39.546,-20.397 1.306,-0.865 2.623,-1.702 4.01,-2.465 1.178,-0.68 2.429,-1.176 3.622,-1.789 3.822,-1.897 7.02,-0.624 9.877,2.005 1,0.915 1.893,1.948 2.691,3.02 6.499,8.663 12.96,17.328 19.404,26.031 3.095,4.128 6.103,8.353 9.2,12.521 2.021,2.745 2.473,5.752 1.515,8.966 -0.234,0.836 -0.618,1.762 -1.193,2.386 -1.542,1.604 -3.166,3.191 -4.902,4.605 -2.474,1.945 -5.077,3.747 -7.647,5.586 -12.84,9.24 -26.543,16.97 -41.017,23.337 -7.403,3.254 -15.001,6.008 -22.767,8.371 -5.812,1.783 -11.595,3.682 -17.645,4.56 -6.433,2.317 -13.29,2.373 -19.91,3.688 -3.3,0.652 -6.708,0.855 -10.077,1.061 -11.234,0.722 -22.47,1.968 -33.762,1.053 -6.748,-0.547 -13.48,-1.093 -20.216,-1.755 -1.559,-0.134 -3.102,-0.543 -4.653,-0.874 -1.111,-0.216 -2.183,-0.565 -3.291,-0.722 -14.599,-2.132 -28.419,-6.805 -41.828,-12.771 -14.117,-6.29 -26.912,-14.651 -38.188,-25.169 -8.288,-7.729 -15.295,-16.538 -21.025,-26.324 -0.902,-1.546 -1.68,-3.201 -2.679,-4.689 -2.735,-4.169 -4.175,-8.95 -6.232,-13.428 -2.019,-4.322 -3.211,-8.897 -4.5,-13.435 -0.565,-1.948 -1.071,-3.916 -1.605,-5.861 -0.172,-0.652 -0.453,-1.306 -0.513,-1.967 -0.577,-8.082 -2.979,-15.938 -2.847,-24.126 0.131,-7.67 -0.229,-15.332 -0.244,-22.995 -0.037,-25.507 -0.048,-50.975 0,-76.471 0.016,-7.896 0.216,-15.782 0.365,-23.669 0.078,-4.282 0.424,-8.557 1.394,-12.762 0.233,-1.091 0.533,-2.22 0.573,-3.331 0.282,-6.59 2.398,-12.801 4.079,-19.11 3.935,-14.525 11.75,-30.103 19.36,-40.608 6.657,-9.199 14.427,-17.359 23.224,-24.407 10.026,-8.101 21.149,-14.486 33.021,-19.588 5.59,-2.415 11.42,-4.147 17.063,-6.386 7.929,-1.636 15.601,-4.487 23.721,-5.218 0.243,0 0.474,-0.039 0.667,-0.078 19.492,-3.65 39.075,-3.057 58.673,-1.655 2.239,0.156 4.443,0.643 6.676,1.002 1.112,0.205 2.177,0.575 3.316,0.671 6.33,0.526 12.36,2.494 18.456,4.041 15.646,3.973 30.13,10.583 43.555,19.423 13.901,9.151 25.641,20.541 34.84,34.484 5.602,8.489 10.47,17.328 13.6,27.025 3.109,6.114 4.347,12.812 5.974,19.334 1.967,7.886 2.896,15.947 3.422,24.077 0.512,8.099 0.931,16.199 0.925,24.329 -0.088,19.18 -0.048,38.357 -0.048,57.536 0,1.784 0.054,3.604 -0.049,5.393 -0.063,1.337 -0.234,2.698 -0.557,3.994 -0.996,3.972 -3.787,6.073 -7.647,6.657 -2.22,0.351 -4.503,0.254 -6.761,0.254 -25.472,0.021 -50.962,0 -76.44,0 -8.795,10e-4 -17.582,10e-4 -26.403,10e-4 z m -38.138,-64.313 c 21.603,0 43.233,0 64.858,0 2.033,0 4.053,0 6.07,-0.039 0.675,-0.019 1.425,-0.078 1.977,-0.359 0.553,-0.282 1.067,-0.848 1.334,-1.402 0.28,-0.584 0.353,-1.314 0.375,-1.967 0.149,-9.229 0.08,-18.467 -0.66,-27.678 -0.35,-4.293 -1.343,-8.489 -2.52,-12.568 -1.062,-3.631 -1.88,-7.409 -3.828,-10.797 -1.57,-2.707 -2.991,-5.53 -4.516,-8.256 -0.547,-0.993 -1.09,-1.986 -1.826,-2.823 -4.438,-5.101 -8.963,-10.038 -14.774,-13.746 -7.1,-4.499 -14.522,-8.032 -22.848,-9.521 -1.108,-0.195 -2.221,-0.391 -3.283,-0.781 -2.79,-1.051 -5.689,-1.265 -8.634,-1.333 -1.805,-0.028 -3.594,-0.223 -5.398,-0.253 -9.452,-0.205 -18.905,-0.545 -28.13,2.211 -0.24,0.058 -0.443,0.116 -0.674,0.116 -3.41,0.225 -6.521,1.519 -9.74,2.59 -7.169,2.375 -13.302,6.476 -19.226,10.981 -1.071,0.827 -1.959,1.87 -2.898,2.843 -4.216,4.42 -7.751,9.308 -10.401,14.856 -0.921,2.045 -2.099,4.013 -2.776,6.114 -2.339,7.507 -4.921,14.984 -4.627,23.026 0.027,0.905 -0.085,1.82 -0.207,2.696 -1.146,7.622 -0.63,15.295 -0.725,22.956 -0.019,1.947 0.913,2.94 2.785,3.038 2.012,0.078 4.054,0.097 6.084,0.097 21.399,-10e-4 42.79,-10e-4 64.208,-10e-4 z"
   id="path2"
   style="clip-rule:evenodd;fill:#ffffff;fill-opacity:1;fill-rule:evenodd"
   inkscape:connector-curvature="0" />
	<path
   d="m 1577.11,522.759 c 0,-51.191 0,-102.4 0,-153.59 0,-2.707 0.084,-5.423 -0.132,-8.11 -0.149,-2.093 0.253,-4.02 0.642,-6.026 0.826,-4.342 3.546,-7.243 7.304,-9.151 3.003,-1.519 6.095,-2.94 9.258,-4.078 8.476,-3.029 16.97,-6.036 25.547,-8.713 4.078,-1.257 8.162,-2.551 12.375,-3.388 4.628,-0.906 9.138,-2.375 13.737,-3.446 3.31,-0.77 6.601,-1.461 9.939,-1.938 7.598,-1.101 15.069,-2.873 22.724,-3.457 2.248,-0.175 4.516,-0.292 6.717,-0.692 7.363,-1.333 14.802,-1.547 22.236,-1.869 14.418,-0.623 28.845,-0.632 43.283,0.214 5.165,0.303 10.355,0.634 15.426,1.82 1.081,0.273 2.222,0.391 3.36,0.497 5.854,0.448 11.521,1.997 17.153,3.544 3.895,1.053 7.873,1.821 11.734,3.163 5.506,1.949 11.096,3.604 16.323,6.331 4.371,2.278 8.927,4.243 13.255,6.698 6.914,3.884 13.24,8.577 19.277,13.629 4.999,4.225 9.684,8.801 13.657,14.038 0.679,0.887 1.334,1.811 2.049,2.668 3.279,3.767 5.809,8.001 8.485,12.189 4.854,7.661 8.443,15.869 11.572,24.319 2.745,7.378 5.033,14.925 6.34,22.712 0.246,1.568 0.724,3.096 1.088,4.625 0.311,1.325 0.706,2.619 0.876,3.952 0.667,4.907 1.261,9.843 1.816,14.77 0.244,2.015 0.453,4.04 0.516,6.046 0.219,8.128 0.503,16.247 0.521,24.356 0.034,65.639 0.012,131.276 0,196.912 0,3.155 -0.119,6.309 -0.415,9.452 -0.3,3.32 -3.71,6.827 -6.979,7.393 -1.542,0.271 -3.145,0.331 -4.722,0.35 -19.386,0.019 -38.783,0.019 -58.176,0 -1.352,0 -2.71,-0.185 -4.065,-0.253 -2.13,-0.138 -3.922,-1.149 -5.396,-2.532 -1.655,-1.577 -2.957,-3.407 -2.977,-5.88 -0.034,-3.154 -0.225,-6.308 -0.225,-9.463 0,-63.827 0,-127.654 0,-191.48 0,-2.492 -0.057,-4.975 0,-7.448 0.152,-10.183 -1.005,-20.269 -2.538,-30.287 -0.903,-6.027 -2.728,-11.886 -5.05,-17.504 -1.037,-2.482 -2.015,-4.985 -3.294,-7.38 -6.489,-12.277 -16.298,-20.844 -28.849,-26.402 -3.075,-1.344 -6.386,-2.103 -9.599,-3.155 -5.402,-1.752 -11.026,-2.189 -16.594,-3.037 -5.823,-0.857 -11.673,-1.255 -17.534,-1.042 -7.672,0.271 -15.301,0.846 -22.967,1.294 -0.219,0.021 -0.444,0.06 -0.665,0.06 -9.269,0.195 -18.361,2.025 -27.505,3.193 -4.243,0.536 -8.4,1.694 -12.578,2.618 -0.646,0.147 -1.324,0.419 -1.795,0.848 -0.638,0.604 -1.271,1.324 -1.553,2.123 -0.294,0.818 -0.266,1.763 -0.275,2.657 -0.044,2.035 -0.019,4.061 -0.019,6.084 0,89.102 0,178.191 0,267.281 0,2.249 0.019,4.497 0,6.765 -0.022,1.121 -0.04,2.252 -0.172,3.379 -0.633,5.727 -3.682,8.978 -9.596,9.434 -1.795,0.146 -3.591,0.128 -5.405,0.128 -17.599,0.019 -35.195,0.019 -52.789,0.019 -2.008,0 -4.043,-0.097 -6.083,-0.226 -0.877,-0.064 -1.796,-0.262 -2.604,-0.574 -3.38,-1.324 -5.799,-3.463 -6.124,-7.338 -0.163,-1.802 -0.434,-3.585 -0.513,-5.384 -0.09,-2.017 -0.024,-4.041 -0.024,-6.076 0,-51.892 0,-103.754 0,-155.642 z"
   id="path4"
   style="clip-rule:evenodd;fill:#ffffff;fill-opacity:1;fill-rule:evenodd"
   inkscape:connector-curvature="0" />
	<path
   d="m 36.072,522.759 c 0,-51.191 0,-102.4 0,-153.59 0,-2.707 0.083,-5.423 -0.132,-8.11 -0.15,-2.093 0.254,-4.02 0.639,-6.026 0.827,-4.342 3.548,-7.243 7.311,-9.151 2.999,-1.519 6.095,-2.94 9.253,-4.078 8.475,-3.029 16.969,-6.036 25.547,-8.713 4.083,-1.257 8.163,-2.551 12.378,-3.388 4.629,-0.906 9.132,-2.375 13.731,-3.446 3.311,-0.77 6.602,-1.461 9.941,-1.938 7.603,-1.101 15.071,-2.873 22.728,-3.457 2.243,-0.175 4.512,-0.292 6.712,-0.692 7.365,-1.333 14.808,-1.547 22.236,-1.869 14.418,-0.623 28.847,-0.632 43.284,0.214 5.164,0.303 10.359,0.634 15.426,1.82 1.081,0.273 2.22,0.391 3.359,0.497 5.861,0.448 11.521,1.997 17.153,3.544 3.895,1.053 7.876,1.821 11.741,3.163 5.5,1.949 11.089,3.604 16.317,6.331 4.377,2.278 8.928,4.243 13.255,6.698 6.913,3.884 13.241,8.577 19.282,13.629 4.994,4.225 9.677,8.801 13.659,14.038 0.676,0.887 1.333,1.811 2.049,2.668 3.271,3.767 5.803,8.001 8.485,12.189 4.853,7.661 8.436,15.869 11.565,24.319 2.746,7.378 5.034,14.925 6.343,22.712 0.244,1.568 0.72,3.096 1.09,4.625 0.306,1.325 0.706,2.619 0.872,3.952 0.671,4.907 1.261,9.843 1.816,14.77 0.248,2.015 0.453,4.04 0.52,6.046 0.215,8.128 0.497,16.247 0.516,24.356 0.039,65.639 0.02,131.276 0,196.912 0,3.155 -0.112,6.309 -0.414,9.452 -0.302,3.32 -3.705,6.827 -6.981,7.393 -1.542,0.271 -3.139,0.331 -4.721,0.35 -19.384,0.019 -38.777,0.019 -58.176,0 -1.352,0 -2.706,-0.185 -4.059,-0.253 -2.137,-0.138 -3.924,-1.149 -5.403,-2.532 -1.655,-1.577 -2.95,-3.407 -2.969,-5.88 -0.039,-3.154 -0.229,-6.308 -0.229,-9.463 0,-63.827 0,-127.654 0,-191.48 0,-2.492 -0.053,-4.975 0,-7.448 0.151,-10.183 -1.002,-20.269 -2.536,-30.287 -0.906,-6.027 -2.73,-11.886 -5.052,-17.504 -1.032,-2.482 -2.011,-4.985 -3.292,-7.38 -6.489,-12.277 -16.302,-20.844 -28.846,-26.402 -3.068,-1.344 -6.388,-2.103 -9.605,-3.155 -5.398,-1.752 -11.025,-2.189 -16.594,-3.037 -5.822,-0.857 -11.673,-1.255 -17.539,-1.042 -7.666,0.271 -15.295,0.846 -22.961,1.294 -0.214,0.021 -0.443,0.06 -0.667,0.06 -9.263,0.195 -18.361,2.025 -27.503,3.193 -4.25,0.536 -8.397,1.694 -12.574,2.618 -0.652,0.147 -1.329,0.419 -1.796,0.848 -0.643,0.604 -1.271,1.324 -1.553,2.123 -0.292,0.818 -0.264,1.763 -0.273,2.657 -0.048,2.035 -0.019,4.061 -0.019,6.084 0,89.102 0,178.191 0,267.281 0,2.249 0.019,4.497 -0.011,6.765 -0.019,1.121 -0.038,2.252 -0.17,3.379 -0.628,5.727 -3.675,8.978 -9.594,9.434 -1.796,0.146 -3.593,0.128 -5.408,0.128 -17.598,0.019 -35.194,0.019 -52.782,0.019 -2.015,0 -4.044,-0.097 -6.09,-0.226 -0.872,-0.064 -1.795,-0.262 -2.604,-0.574 -3.377,-1.324 -5.792,-3.463 -6.124,-7.338 -0.161,-1.802 -0.433,-3.585 -0.506,-5.384 -0.092,-2.017 -0.029,-4.041 -0.029,-6.076 0.004,-51.892 0.004,-103.754 0.004,-155.642 z"
   id="path6"
   style="clip-rule:evenodd;fill:#ffffff;fill-opacity:1;fill-rule:evenodd"
   inkscape:connector-curvature="0" />
	<path
   d="m 286.49,522.759 c 0,-51.191 0,-102.4 0,-153.59 0,-2.707 0.087,-5.423 -0.131,-8.11 -0.152,-2.093 0.253,-4.02 0.638,-6.026 0.828,-4.342 3.548,-7.243 7.311,-9.151 2.999,-1.519 6.095,-2.94 9.254,-4.078 8.475,-3.029 16.969,-6.036 25.546,-8.713 4.083,-1.257 8.163,-2.551 12.379,-3.388 4.629,-0.906 9.132,-2.375 13.732,-3.446 3.31,-0.77 6.605,-1.461 9.939,-1.938 7.604,-1.101 15.072,-2.873 22.729,-3.457 2.249,-0.175 4.513,-0.292 6.712,-0.692 7.365,-1.333 14.808,-1.547 22.236,-1.869 14.418,-0.623 28.846,-0.632 43.284,0.214 5.165,0.303 10.359,0.634 15.426,1.82 1.082,0.273 2.22,0.391 3.359,0.497 5.861,0.448 11.522,1.997 17.154,3.544 3.895,1.053 7.877,1.821 11.741,3.163 5.5,1.949 11.089,3.604 16.318,6.331 4.375,2.278 8.927,4.243 13.254,6.698 6.912,3.884 13.24,8.577 19.282,13.629 4.994,4.225 9.677,8.801 13.659,14.038 0.676,0.887 1.334,1.811 2.049,2.668 3.271,3.767 5.802,8.001 8.484,12.189 4.854,7.661 8.436,15.869 11.567,24.319 2.745,7.378 5.034,14.925 6.342,22.712 0.244,1.568 0.721,3.096 1.092,4.625 0.306,1.325 0.706,2.619 0.871,3.952 0.671,4.907 1.26,9.843 1.816,14.77 0.248,2.015 0.453,4.04 0.52,6.046 0.214,8.128 0.497,16.247 0.517,24.356 0.039,65.639 0.019,131.276 0,196.912 0,3.155 -0.112,6.309 -0.414,9.452 -0.301,3.32 -3.706,6.827 -6.981,7.393 -1.542,0.271 -3.139,0.331 -4.721,0.35 -19.384,0.019 -38.777,0.019 -58.176,0 -1.353,0 -2.706,-0.185 -4.059,-0.253 -2.137,-0.138 -3.924,-1.149 -5.403,-2.532 -1.655,-1.577 -2.95,-3.407 -2.969,-5.88 -0.039,-3.154 -0.225,-6.308 -0.225,-9.463 0,-63.827 0,-127.654 0,-191.48 0,-2.492 -0.058,-4.975 0,-7.448 0.146,-10.183 -1.007,-20.269 -2.541,-30.287 -0.906,-6.027 -2.73,-11.886 -5.053,-17.504 -1.031,-2.482 -2.01,-4.985 -3.291,-7.38 -6.489,-12.277 -16.302,-20.844 -28.846,-26.402 -3.066,-1.344 -6.387,-2.103 -9.605,-3.155 -5.397,-1.752 -11.024,-2.189 -16.594,-3.037 -5.823,-0.857 -11.673,-1.255 -17.539,-1.042 -7.667,0.271 -15.294,0.846 -22.961,1.294 -0.213,0.021 -0.443,0.06 -0.667,0.06 -9.263,0.195 -18.361,2.025 -27.503,3.193 -4.25,0.536 -8.397,1.694 -12.573,2.618 -0.653,0.147 -1.33,0.419 -1.797,0.848 -0.643,0.604 -1.27,1.324 -1.552,2.123 -0.292,0.818 -0.263,1.763 -0.273,2.657 -0.048,2.035 -0.019,4.061 -0.019,6.084 0,89.102 0,178.191 0,267.281 0,2.249 0.019,4.497 -0.01,6.765 -0.02,1.121 -0.04,2.252 -0.172,3.379 -0.627,5.727 -3.674,8.978 -9.594,9.434 -1.795,0.146 -3.591,0.128 -5.408,0.128 -17.597,0.019 -35.193,0.019 -52.781,0.019 -2.015,0 -4.045,-0.097 -6.09,-0.226 -0.871,-0.064 -1.795,-0.262 -2.604,-0.574 -3.378,-1.324 -5.793,-3.463 -6.124,-7.338 -0.16,-1.802 -0.432,-3.585 -0.505,-5.384 -0.092,-2.017 -0.03,-4.041 -0.03,-6.076 0,-51.892 0,-103.754 0,-155.642 z"
   id="path8"
   style="clip-rule:evenodd;fill:#ffffff;fill-opacity:1;fill-rule:evenodd"
   inkscape:connector-curvature="0" />
	<path
   d="m 1126.835,697.997 c -11.029,0 -22.099,0 -33.153,-0.019 -2.029,0 -4.057,-0.06 -6.095,-0.166 -3.555,-0.206 -6.43,-1.783 -8.859,-4.353 -1.89,-1.978 -3.257,-4.313 -4.628,-6.639 -5.162,-8.713 -10.283,-17.447 -15.417,-26.178 -10.477,-17.855 -20.946,-35.72 -31.441,-53.576 -6.63,-11.272 -13.278,-22.489 -19.904,-33.726 -0.469,-0.758 -1.043,-1.439 -1.627,-2.109 -0.543,-0.625 -2.005,-0.565 -2.408,0.086 -2.238,3.642 -4.512,7.262 -6.688,10.943 -7.069,12.031 -14.086,24.084 -21.181,36.106 -13.562,23.104 -27.161,46.169 -40.761,69.253 -1.027,1.732 -2.026,3.512 -3.332,5.08 -2.72,3.25 -6.236,5.093 -10.552,5.218 -1.583,0.06 -3.16,0.078 -4.744,0.078 -22.083,0 -44.198,0.01 -66.307,-0.019 -2.457,0 -4.952,-0.185 -7.414,-0.372 -0.887,-0.056 -1.798,-0.271 -2.614,-0.621 -2.201,-0.956 -3.691,-2.502 -3.784,-5.103 -0.038,-1.614 -0.01,-3.191 0.727,-4.634 0.909,-1.789 1.765,-3.65 2.895,-5.324 15.189,-22.89 30.428,-45.778 45.644,-68.646 11.495,-17.272 22.964,-34.503 34.456,-51.766 9.849,-14.808 19.714,-29.606 29.581,-44.423 0.878,-1.305 1.759,-2.629 2.595,-3.963 0.837,-1.274 0.765,-2.542 -0.041,-3.797 -2.763,-4.372 -5.562,-8.73 -8.328,-13.122 -20.741,-32.946 -41.472,-65.92 -62.248,-98.885 -11.635,-18.458 -23.348,-36.907 -35.021,-55.356 -0.866,-1.344 -1.736,-2.648 -2.492,-4.022 -0.918,-1.634 -1.184,-3.397 -1.109,-5.236 0.078,-2.239 1.683,-4.51 3.745,-5.19 2.823,-0.855 5.627,-1.508 8.634,-1.441 5.633,0.098 11.27,0.03 16.922,0.03 16.01,0 32.023,-0.03 48.024,0.009 2.229,0.02 4.512,0.117 6.727,0.517 4.23,0.729 7.307,3.398 9.708,6.805 1.415,2.025 2.633,4.206 3.875,6.328 8.557,15.072 17.125,30.132 25.678,45.213 9.212,16.238 18.434,32.496 27.658,48.726 3.116,5.48 6.238,10.972 9.371,16.433 0.743,1.295 2.482,1.333 3.366,0.087 0.234,-0.352 0.537,-0.701 0.762,-1.11 0.321,-0.574 0.603,-1.187 0.939,-1.8 9.996,-17.593 19.97,-35.215 29.984,-52.815 8.481,-14.867 17,-29.694 25.493,-44.531 2.564,-4.499 5.078,-9.036 7.667,-13.514 0.787,-1.382 1.636,-2.706 2.563,-3.962 2.863,-3.845 6.782,-5.831 11.514,-6.28 1.34,-0.136 2.701,-0.106 4.047,-0.106 21.883,-0.009 43.745,0.009 65.61,-0.03 3.004,0 5.871,0.264 8.571,1.597 2.908,1.431 4.493,5.14 3.221,7.983 -0.859,1.83 -1.818,3.621 -2.883,5.344 -11.979,19.053 -23.995,38.116 -36.011,57.158 -13.452,21.322 -26.93,42.623 -40.398,63.943 -8.778,13.902 -17.564,27.805 -26.331,41.709 -1.061,1.692 -2.142,3.425 -3.119,5.205 -0.949,1.695 -0.939,3.438 0.188,5.112 3.123,4.674 6.262,9.368 9.378,14.058 12.856,19.317 25.695,38.641 38.58,57.938 11.748,17.621 23.507,35.233 35.243,52.832 9.362,14.06 18.683,28.139 28.079,42.175 1.796,2.67 2.997,5.55 4.062,8.511 0.912,2.514 -0.439,5.686 -2.879,6.891 -1.205,0.565 -2.528,1.034 -3.837,1.19 -1.986,0.253 -4.044,0.253 -6.084,0.253 -11.258,0.033 -22.547,0.023 -33.817,0.023 z"
   id="path10"
   style="clip-rule:evenodd;fill:#ffffff;fill-opacity:1;fill-rule:evenodd"
   inkscape:connector-curvature="0" />
	<path
   d="m 787.428,511.845 c 0,56.164 0,112.329 -0.022,168.503 0,3.164 -0.231,6.289 -0.275,9.453 -0.087,3.972 -4.861,7.943 -7.988,7.993 -1.814,0.037 -3.609,0.185 -5.408,0.185 -18.273,0.019 -36.532,0.019 -54.815,0.019 -1.562,0 -3.148,-0.078 -4.731,-0.125 -3.394,-0.087 -5.992,-1.687 -7.994,-4.371 -0.696,-0.915 -1.249,-1.908 -1.318,-3.058 -0.181,-3.153 -0.453,-6.299 -0.453,-9.443 -0.043,-20.521 -0.025,-41.048 -0.025,-61.569 0,-91.816 0,-183.611 0.025,-275.4 0,-3.174 0.047,-6.328 0.303,-9.463 0.299,-4.078 2.745,-6.503 6.554,-7.691 2.411,-0.739 4.874,-0.777 7.367,-0.777 11.047,0.009 22.074,0.009 33.153,0.009 8.12,0 16.226,0.029 24.354,-0.03 2.302,0 4.503,0.351 6.53,1.459 2.52,1.384 4.228,3.409 4.428,6.368 0.166,2.689 0.293,5.395 0.293,8.1 0.022,22.782 0.022,45.563 0.022,68.345 0,33.82 0,67.661 0,101.493 z"
   id="path12"
   style="clip-rule:evenodd;fill:#ffffff;fill-opacity:1;fill-rule:evenodd"
   inkscape:connector-curvature="0" />
</g>
</svg>